<?xml version="1.0" encoding="utf-8"?>
<!-- Generator: Adobe Illustrator 15.0.2, SVG Export Plug-In . SVG Version: 6.00 Build 0)  -->
<!DOCTYPE svg PUBLIC "-//W3C//DTD SVG 1.1//EN" "http://www.w3.org/Graphics/SVG/1.1/DTD/svg11.dtd">
<svg version="1.1" id="Layer_1" xmlns="http://www.w3.org/2000/svg" xmlns:xlink="http://www.w3.org/1999/xlink" x="0px" y="0px"
	 width="1950px" height="1950px" viewBox="0 0 1950 1950" enable-background="new 0 0 1950 1950" xml:space="preserve">
<g id="g3013">
	<g id="g3015" transform="translate(630.3066,1240.3838)">
		<path id="path3017" fill="#FFFFFF" d="M63.076-733.363C-16.046-619.897-42.178-461.152-42.178-327.46
			c0,209.311,18.632,624.33,389.802,624.33c256.076,0,374.072-245.244,374.153-335.495c5.565,3.602,10.646,6.896,15.082,9.884
			c27.342,18.464,97.592,63.208,134.049,148.555c12.983,30.493,33.309,145.108-12.1,229.997
			c-24.519,45.814-87.349,139.207-245.994,176.979c-66.137,13.178-128.643,6.59-185.182-4.826
			c-56.539-11.34-106.867-28.731-151.145-52.175c-44.2-23.443-82.592-50.948-115.096-82.591
			c-32.422-31.641-59.198-63.436-80.009-95.537l-37.663,4.597c0.482,55.774-7.986,138.366-7.986,138.366s-7.178,76-20.728,121.893
			c59.2,33.097,130.982,60.449,215.266,81.823c84.122,21.452,236.477,47.961,370.362,31.643
			c-74.685,17.929-152.354,27.352-231.154,27.352c-531.429,0-962.203-430.726-962.203-962.124
			c0-531.396,430.774-962.121,962.203-962.121c182.842,0,353.508,50.028,498.765,137.522
			c-246.64-60.679-370.687-23.292-421.094-8.121c-77.671,23.366-132.919,54.548-176.229,85.041
			c-45.489,31.871-128.725,119.825-160.663,174.375C91.951-806.913,74.529-770.905,63.076-733.363"/>
	</g>
	<g id="g3019" transform="translate(1604.7363,1111.4878)">
		<path id="path3021" fill="#FFFFFF" d="M306.684-443.347l-559.98-0.613c-14.84-86.345-69.281-206.398-177.196-269.146
			c60.489-73.015,153.161-116.148,190.665-125.648c39.278-9.884,102.188-12.029,135.58-9.884
			C0.279-834.004,113.518-786.733,203.689-660.09c37.1,57.462,68.152,119.213,92.348,184.411c0.08,0.23,0.16,0.46,0.242,0.69
			C299.829-464.722,303.297-454.15,306.684-443.347"/>
	</g>
	<g id="g3023" transform="translate(1603.5742,684.5928)">
		<path id="path3025" fill="#FFFFFF" d="M306.394,517.166l-557.884-0.077c-43.795-28.423-118.318-74.085-146.225-88.565
			c-62.347-32.331-298.261-172.229-375.284-237.888c-78.477-66.73-151.146-189.773-151.146-283.014
			c0-28.347,5.324-57.153,13.954-85.194c61.862-88.797,156.066-149.857,295.356-149.857c74.201-4.521,135.577,12.181,185.504,41.219
			c-6.373,7.813-12.501,15.935-18.066,24.363c-26.938,40.605-34.199,75.388-39.844,110.171
			c-5.161,32.254,5.242,77.993,18.39,109.023c20.002,47.27,71.137,96.304,130.174,138.364
			c38.312,27.274,137.355,77.074,172.521,98.45c39.036,23.75,197.117,103.429,245.591,129.86
			c24.923,14.251,104.85,55.93,159.373,104.349C265.986,452.58,290.344,481.388,306.394,517.166"/>
	</g>
	<g id="g3027" transform="translate(1596.2188,1137.3525)">
		<path id="path3029" fill="#FFFFFF" d="M304.555-501.543c-24.195-65.199-55.248-126.95-92.349-184.411
			C247.049-637.15,278.424-576.626,304.555-501.543"/>
	</g>
</g>
</svg>
