<svg width="169" height="41" viewBox="0 0 169 41" fill="none" xmlns="http://www.w3.org/2000/svg">
<path fill-rule="evenodd" clip-rule="evenodd" d="M47.0127 12.8496H48.3202L54.4412 26.401H54.4848L60.5628 12.8496H61.8694V27.863H60.7807L60.868 14.617H60.8241L54.8551 27.863H54.0057L48.0586 14.7482H48.015L48.1017 27.863H47.0127V12.8496Z" fill="#2B2C3A"/>
<path fill-rule="evenodd" clip-rule="evenodd" d="M70.7555 27.0778C74.241 27.0778 76.6806 24.1973 76.6806 20.3564C76.6806 16.5156 74.241 13.6361 70.7555 13.6361C67.2264 13.6361 64.8302 16.5156 64.8302 20.3564C64.8302 24.1973 67.2264 27.0778 70.7555 27.0778ZM70.7555 12.6318C74.8509 12.6318 77.8138 15.9273 77.8138 20.3564C77.8138 24.7647 74.8509 28.0818 70.7555 28.0818C66.5729 28.0818 63.6973 24.7647 63.6973 20.3564C63.6973 15.9273 66.5729 12.6318 70.7555 12.6318Z" fill="#2B2C3A"/>
<path fill-rule="evenodd" clip-rule="evenodd" d="M80.2959 12.8496H81.3855V21.9716C81.3855 25.3533 83.0843 27.0996 85.96 27.0996C88.8357 27.0996 90.5345 25.3533 90.5345 21.9716V12.8496H91.6241V21.9716C91.6241 26.2479 89.3148 28.0819 85.96 28.0819C82.6268 28.0819 80.2959 26.2479 80.2959 21.9716V12.8496Z" fill="#2B2C3A"/>
<path fill-rule="evenodd" clip-rule="evenodd" d="M94.3892 23.7607C94.3892 25.9644 96.1314 27.165 98.7897 27.165C101.534 27.165 103.103 25.8767 103.103 23.8041C103.103 18.8501 93.4956 22.4953 93.4956 16.6901C93.4956 14.3556 95.5649 12.6318 98.7021 12.6318C101.73 12.6318 103.865 14.0284 103.865 16.6467H102.797C102.797 14.595 101.055 13.5484 98.7021 13.5484C96.3276 13.5484 94.6071 14.7481 94.6071 16.6027C94.6071 21.4038 104.235 17.7161 104.235 23.7607C104.235 26.335 102.253 28.0816 98.7897 28.0816C95.4126 28.0816 93.3213 26.5536 93.3213 23.7607H94.3892Z" fill="#2B2C3A"/>
<path fill-rule="evenodd" clip-rule="evenodd" d="M106.369 12.8496H116.129V13.7879H107.458V19.7233H114.473V20.6616H107.458V26.9248H116.303V27.863H106.369V12.8496Z" fill="black"/>
<path fill-rule="evenodd" clip-rule="evenodd" d="M121.159 25.5499V21.2073H125.342C127.019 21.2073 127.847 22.0582 127.847 23.3025C127.847 24.6333 127.063 25.5499 125.32 25.5499H121.159ZM121.159 19.0253V15.1628H124.928C126.628 15.1628 127.281 15.9053 127.281 16.9739C127.281 18.1528 126.518 19.0253 124.907 19.0253H121.159ZM125.298 12.8496H118.219V27.863H125.734C129.067 27.863 130.81 25.9645 130.81 23.4119C130.81 21.6656 129.699 20.2908 127.847 19.9636V19.8762C129.459 19.4179 130.2 18.1965 130.2 16.7779C130.2 14.3119 128.631 12.8496 125.298 12.8496ZM143.553 12.8496H132.682V27.863H143.749V25.4405H135.601V21.3602H142.006V19.047H135.601V15.2722H143.553V12.8496ZM146.623 12.8496H149.542V25.3968H156.709V27.863H146.623V12.8496ZM168.406 12.8496H155.336V15.2939H160.412V27.863H163.331V15.2939H168.406V12.8496Z" fill="#FFA500"/>
<path fill-rule="evenodd" clip-rule="evenodd" d="M29.0671 27.9668H28.823C28.6869 27.7111 28.5731 27.3359 28.562 26.7862C28.562 26.7862 28.5241 25.8725 28.2745 25.9376C28.2745 25.9376 27.4815 25.9922 26.9818 25.7094C26.9818 25.7094 28.584 25.8671 29.2517 25.3994C29.2517 25.3994 30.9297 24.4365 31.3427 23.0114C31.3427 23.0114 31.766 22.9842 31.7443 22.5216C31.7443 22.5216 31.6901 22.1085 31.3316 22.1465C31.3316 22.1465 30.9679 22.1356 30.9459 22.4456C30.9459 22.4456 30.05 22.3151 29.5286 22.0322C29.5286 22.0322 28.7956 21.6571 28.6869 21.5754C28.6869 21.5754 29.469 20.7376 29.3116 20.1174C29.3116 20.1174 29.1379 18.9751 28.1387 18.7796C28.1387 18.7796 27.4707 18.6871 26.8298 18.9425C26.8298 18.9425 27.6227 19.8565 27.4328 21.0151C27.4328 21.0151 28.1005 20.9825 28.1495 21.3416C28.1495 21.3416 27.742 21.0585 27.2482 21.2436C27.2482 21.2436 27.4054 19.8128 26.5366 19.1874C26.5366 19.1874 25.9556 18.6325 24.5654 19.1222C24.5654 19.1222 24.3991 19.1791 24.2234 19.2896V19.3068C23.8705 19.5411 23.3654 20.0468 23.3491 20.9825C23.3491 20.9825 23.2676 22.2496 24.2234 22.6522V24.7085C24.0984 24.9479 23.9193 25.1708 23.664 25.3505C23.664 25.3505 21.9806 26.8408 21.4487 27.9505L21.4863 16.8156H21.3942L16.7786 27.9668H14.5464L9.93082 16.9734H9.84382L10.0666 27.9668H7.10163V12.7468H11.082L15.6759 23.9196H15.7412L20.3354 12.7468H21.6492H24.2234H28.6273C32.005 12.7468 33.596 14.2265 33.596 16.7288C33.596 18.1648 32.8467 19.4048 31.2066 19.8728V19.9599C33.0854 20.2916 34.2152 21.6842 34.2152 23.4574C34.2152 26.0465 32.4448 27.9668 29.0671 27.9668ZM20.1888 0.285645C9.31501 0.285645 0.5 9.11565 0.5 20.0079C0.5 30.9002 9.31501 39.7299 20.1888 39.7299C31.0626 39.7299 39.8773 30.9002 39.8773 20.0079C39.8773 9.11565 31.0626 0.285645 20.1888 0.285645Z" fill="#FFA500"/>
</svg>
