<?xml version="1.0" standalone="no"?>
<!DOCTYPE svg PUBLIC "-//W3C//DTD SVG 20010904//EN"
 "http://www.w3.org/TR/2001/REC-SVG-20010904/DTD/svg10.dtd">
<svg version="1.0" xmlns="http://www.w3.org/2000/svg"
 width="3642.000000pt" height="2448.000000pt" viewBox="0 0 1214.000000 816.000000"
 preserveAspectRatio="xMidYMid meet">

<g transform="translate(0.000000,816.000000) scale(0.100000,-0.100000)"
fill="#000000" stroke="none">
<path d="M4431 7585 c-213 -48 -376 -146 -503 -304 -292 -363 -237 -876 129
-1192 72 -62 232 -143 338 -170 96 -24 293 -27 393 -6 l62 14 21 -36 c34 -58
940 -1394 960 -1417 11 -11 19 -23 19 -27 0 -4 -19 -37 -42 -74 -127 -208
-208 -465 -208 -665 0 -64 -1 -68 -23 -68 -13 0 -334 -63 -715 -140 l-692
-140 -47 46 c-209 200 -556 136 -677 -126 -39 -83 -52 -176 -37 -260 52 -291
343 -447 606 -326 67 30 154 111 186 171 22 42 27 45 65 45 34 0 1352 249
1405 265 11 4 24 -14 49 -71 115 -262 381 -534 642 -657 176 -83 347 -120 548
-119 294 2 539 84 772 260 259 194 433 475 505 812 25 118 25 391 0 507 -59
276 -206 544 -385 702 -37 32 -79 70 -94 83 l-26 23 175 245 c96 135 182 258
191 273 16 26 21 28 60 23 122 -16 304 48 400 142 107 104 162 222 170 362 8
157 -39 287 -147 402 -192 206 -525 222 -736 36 -184 -162 -239 -398 -145
-621 l29 -70 -31 -46 c-17 -25 -107 -152 -200 -282 -92 -130 -168 -241 -168
-248 0 -15 -6 -14 -123 11 -80 17 -135 21 -252 21 -227 -1 -393 -43 -602 -153
-53 -28 -100 -47 -104 -43 -4 5 -219 321 -476 703 l-469 695 57 85 c111 163
155 323 146 524 -16 381 -258 692 -618 797 -97 28 -314 35 -408 14z m2581
-3051 l3 -105 51 -18 c146 -49 246 -192 261 -373 l6 -68 -140 0 -140 0 -6 59
c-12 115 -56 181 -121 181 -41 0 -72 -22 -96 -70 -48 -94 -31 -227 38 -298 20
-22 71 -58 112 -82 202 -115 272 -177 311 -278 31 -76 34 -260 6 -338 -42
-120 -128 -201 -249 -234 l-63 -17 -3 -102 -3 -101 -69 0 -69 0 -3 101 -3 102
-54 14 c-111 28 -217 106 -261 192 -25 50 -46 134 -55 219 l-6 62 144 0 144 0
6 -69 c7 -80 33 -140 74 -166 33 -22 111 -25 146 -6 55 29 83 159 53 248 -22
67 -80 120 -196 183 -220 119 -294 217 -307 405 -7 98 7 164 53 256 49 99 113
151 227 184 l57 16 0 105 0 104 75 0 74 0 3 -106z"/>
<path d="M9003 1695 c-41 -18 -67 -66 -59 -111 14 -72 111 -109 169 -64 62 49
52 146 -17 175 -43 18 -52 18 -93 0z"/>
<path d="M8590 1243 c0 -413 2 -451 19 -488 30 -66 53 -80 131 -80 54 0 72 4
90 20 20 18 50 66 50 80 0 3 -31 5 -70 5 l-70 0 0 455 0 455 -75 0 -75 0 0
-447z"/>
<path d="M800 1382 l0 -259 -57 -6 c-50 -5 -63 -11 -90 -41 -54 -58 -47 -66
57 -66 l90 0 0 -170 0 -170 75 0 75 0 0 170 0 170 181 0 181 0 33 33 c47 47
55 89 55 282 0 188 -8 231 -50 278 l-28 32 -261 3 -261 3 0 -259z m450 -57 l0
-205 -150 0 -150 0 0 205 0 205 150 0 150 0 0 -205z"/>
<path d="M7034 1630 c-29 -11 -62 -55 -75 -99 -7 -22 -10 -96 -7 -186 4 -208
-5 -195 231 -315 l187 -95 0 -77 0 -76 -141 -4 -141 -3 -29 -33 c-16 -18 -29
-41 -29 -52 0 -19 7 -20 191 -20 224 0 246 6 280 76 18 38 20 58 17 138 -2 76
-7 100 -24 123 -13 18 -86 62 -205 125 l-184 96 -3 151 -3 151 146 0 145 0 0
-120 0 -120 75 0 75 0 0 120 c0 102 -3 127 -21 161 -32 63 -57 69 -276 68
-103 0 -198 -4 -209 -9z"/>
<path d="M6148 1554 l-68 -34 0 -90 c0 -89 0 -90 -25 -90 -23 0 -25 -3 -25
-50 0 -47 2 -50 25 -50 l25 0 0 -225 c0 -244 4 -269 54 -315 25 -22 38 -25
120 -28 110 -4 156 10 186 60 11 18 20 36 20 41 0 4 -52 7 -115 7 l-115 0 0
230 0 230 85 0 85 0 0 50 0 50 -85 0 -85 0 0 125 c0 69 -3 125 -7 125 -5 -1
-38 -17 -75 -36z"/>
<path d="M9463 1551 l-73 -35 0 -88 c0 -87 0 -88 -25 -88 -23 0 -25 -3 -25
-50 0 -46 2 -50 24 -50 l25 0 3 -232 c3 -213 5 -236 23 -268 33 -57 74 -72
185 -68 69 3 102 9 121 21 24 16 49 55 49 77 0 6 -49 10 -115 10 l-115 0 0
230 0 229 88 3 87 3 3 48 3 47 -90 0 -90 0 -3 124 -3 123 -72 -36z"/>
<path d="M9953 1551 l-73 -35 0 -88 c0 -87 0 -88 -25 -88 -23 0 -25 -3 -25
-50 0 -47 2 -50 25 -50 l25 0 0 -212 c0 -232 6 -272 50 -321 l28 -32 110 0
c120 0 148 9 175 55 29 48 25 50 -98 50 l-115 0 0 230 0 230 85 0 85 0 0 50 0
50 -85 0 -84 0 -3 124 -3 123 -72 -36z"/>
<path d="M11170 1040 l0 -370 75 0 75 0 0 280 0 280 109 0 110 0 3 -234 3
-234 31 -39 c35 -43 93 -61 158 -49 41 8 91 49 101 84 6 21 4 22 -70 22 l-75
0 2 228 c3 222 3 227 24 230 25 4 69 48 79 80 l6 22 -240 0 -241 0 0 35 0 35
-75 0 -75 0 0 -370z"/>
<path d="M1694 1324 c-17 -8 -42 -34 -55 -57 -23 -40 -24 -52 -27 -251 -4
-229 3 -269 54 -317 23 -21 36 -24 136 -28 127 -4 177 7 208 46 l21 26 35 -34
c33 -32 39 -34 104 -34 79 0 115 20 137 73 l13 32 -70 0 -70 0 0 280 0 280
-227 0 c-184 0 -234 -3 -259 -16z m336 -319 l0 -225 -135 0 -135 0 0 225 0
225 135 0 135 0 0 -225z"/>
<path d="M2430 1076 c0 -145 3 -277 6 -294 4 -17 21 -48 39 -69 l32 -37 106
-4 c130 -5 167 1 207 34 l30 26 0 -146 0 -146 -140 0 -140 0 0 -55 0 -55 171
0 171 0 33 33 c42 42 55 90 55 208 l0 96 38 11 c43 13 66 34 81 75 l11 27 -65
0 -65 0 0 280 0 280 -75 0 -75 0 0 -280 0 -280 -135 0 -135 0 0 280 0 280 -75
0 -75 0 0 -264z"/>
<path d="M3260 1005 l0 -335 75 0 75 0 0 130 0 130 113 141 112 141 3 -271 2
-271 75 0 75 0 0 143 0 142 108 130 107 130 6 -230 c3 -127 6 -231 7 -232 51
-59 68 -73 99 -79 53 -10 110 11 133 49 31 50 27 57 -35 57 l-55 0 0 218 c0
245 -9 283 -72 322 -74 45 -123 20 -219 -113 l-74 -102 -5 70 c-6 82 -29 128
-76 150 -74 35 -105 17 -211 -124 l-88 -116 -3 128 -3 127 -74 0 -75 0 0 -335z"/>
<path d="M4483 1326 c-20 -9 -40 -30 -52 -55 -19 -37 -21 -58 -21 -266 0 -343
-5 -338 324 -333 199 3 217 5 242 24 16 11 34 35 41 52 l13 32 -235 0 -235 0
0 95 0 95 215 0 215 0 0 113 c0 130 -10 176 -50 220 l-28 32 -199 2 c-153 2
-205 0 -230 -11z m355 -183 l-3 -88 -137 -3 -138 -3 0 91 0 90 140 0 141 0 -3
-87z"/>
<path d="M5240 1005 l0 -335 75 0 75 0 0 138 1 137 134 140 134 140 1 -215 c0
-187 3 -220 19 -255 29 -63 53 -79 120 -80 67 0 101 15 124 55 27 45 23 50
-48 50 l-65 0 0 219 c0 131 -4 231 -11 248 -24 65 -93 105 -151 88 -12 -4 -76
-62 -140 -128 l-118 -122 0 128 0 127 -75 0 -75 0 0 -335z"/>
<path d="M7790 835 l0 -505 33 0 c43 0 75 24 98 74 15 34 19 66 19 190 l0 149
21 -26 c32 -42 76 -49 274 -45 194 3 208 7 239 59 26 44 21 49 -48 49 l-64 0
-4 228 c-3 242 -7 261 -58 307 -21 19 -39 20 -266 23 l-244 3 0 -506z m418
173 l-3 -223 -132 -3 -133 -3 0 226 0 225 135 0 135 0 -2 -222z"/>
<path d="M8972 1063 c3 -258 4 -281 24 -318 35 -68 120 -94 199 -61 30 13 65
58 65 86 0 6 -26 10 -65 10 l-65 0 0 280 0 280 -81 0 -80 0 3 -277z"/>
<path d="M10435 1331 c-28 -12 -51 -40 -70 -84 -12 -29 -15 -79 -15 -244 0
-180 3 -213 19 -248 37 -81 34 -80 291 -80 169 0 233 3 252 13 24 13 58 60 58
81 0 8 -71 11 -235 11 l-236 0 3 93 3 92 213 3 212 2 0 127 c0 107 -3 133 -20
169 -33 68 -57 74 -272 73 -100 0 -192 -4 -203 -8z m345 -191 l0 -91 -137 3
-138 3 -3 88 -3 87 141 0 140 0 0 -90z"/>
</g>
</svg>
